<?xml version="1.0" encoding="UTF-8"?>
<svg width="32" height="32" viewBox="0 0 32 32" fill="none" xmlns="http://www.w3.org/2000/svg">
  <path fill-rule="evenodd" clip-rule="evenodd" d="M16 4L12 8H6C4.89543 8 4 8.89543 4 10V24C4 25.1046 4.89543 26 6 26H26C27.1046 26 28 25.1046 28 24V10C28 8.89543 27.1046 8 26 8H20L16 4ZM11 14C12.1046 14 13 14.8954 13 16C13 17.1046 12.1046 18 11 18C9.89543 18 9 17.1046 9 16C9 14.8954 9.89543 14 11 14ZM23 16C23 14.8954 22.1046 14 21 14C19.8954 14 19 14.8954 19 16C19 17.1046 19.8954 18 21 18C22.1046 18 23 17.1046 23 16ZM10 20C10 20 10 25 16 25C22 25 22 20 22 20H10Z" fill="currentColor"/>
</svg>
