<svg xmlns="http://www.w3.org/2000/svg" width="32" height="32" viewBox="0 0 32 32">
  <path d="M16 4L12 8H6C4.9 8 4 8.9 4 10V24C4 25.1 4.9 26 6 26H26C27.1 26 28 25.1 28 24V10C28 8.9 27.1 8 26 8H20L16 4Z M11 14C12.1 14 13 14.9 13 16C13 17.1 12.1 18 11 18C9.9 18 9 17.1 9 16C9 14.9 9.9 14 11 14Z M21 14C22.1 14 23 14.9 23 16C23 17.1 22.1 18 21 18C19.9 18 19 17.1 19 16C19 14.9 19.9 14 21 14Z M10 20H22C22 22.8 19.3 25 16 25C12.7 25 10 22.8 10 20Z" fill="black"/>
  <style>
    @media (prefers-color-scheme: dark) {
      path { fill: white; }
    }
  </style>
</svg>
